<svg xmlns="http://www.w3.org/2000/svg" width="51" height="51" viewBox="0 0 51 51">
  <g id="Group_3183" data-name="Group 3183" transform="translate(3116 5334) rotate(180)">
    <circle id="Ellipse_118" data-name="Ellipse 118" cx="25.5" cy="25.5" r="25.5" transform="translate(3065 5283)" fill="#fff" opacity="0.5"/>
    <g id="next" transform="translate(2983.703 5301)">
      <g id="Group_41" data-name="Group 41" transform="translate(102.297 0)">
        <path id="Path_10016" data-name="Path 10016" d="M110.881,7.376,103.366.169a.645.645,0,0,0-.886.015.583.583,0,0,0,0,.834L109.553,7.8l-7.073,6.782a.583.583,0,0,0,0,.849.645.645,0,0,0,.886,0l7.515-7.207A.583.583,0,0,0,110.881,7.376Z" transform="translate(-102.297 0)" fill="#fff" stroke="#fff" stroke-width="2"/>
      </g>
    </g>
  </g>
</svg>
