<svg xmlns="http://www.w3.org/2000/svg" width="50" height="50" viewBox="0 0 50 50">
  <g id="Group_3180" data-name="Group 3180" transform="translate(-1652 -1398)">
    <g id="Group_3238" data-name="Group 3238" transform="translate(1652 1398)">
      <g id="Ellipse_118" data-name="Ellipse 118" fill="none" stroke="#fcf8f4" stroke-width="1">
        <circle cx="25" cy="25" r="25" stroke="none"/>
        <circle cx="25" cy="25" r="24.5" fill="none"/>
      </g>
      <g id="next" transform="translate(20.503 17.491)">
        <g id="Group_41" data-name="Group 41">
          <path id="Path_10016" data-name="Path 10016" d="M110.881,7.376,103.366.169a.645.645,0,0,0-.886.015.583.583,0,0,0,0,.834L109.553,7.8l-7.073,6.782a.583.583,0,0,0,0,.849.645.645,0,0,0,.886,0l7.515-7.207A.583.583,0,0,0,110.881,7.376Z" transform="translate(-102.297 0)" fill="#fcf8f4" stroke="#fcf8f4" stroke-width="2"/>
        </g>
      </g>
    </g>
  </g>
</svg>
