<svg width="26.000000000000004" height="26.000000000000004" xmlns="http://www.w3.org/2000/svg">

 <g>
  <title>background</title>
  <rect fill="none" id="canvas_background" height="402" width="582" y="-1" x="-1"/>
 </g>
 <g>
  <title>Layer 1</title>
  <path stroke="null" id="svg_1" fill="#1D1D1B" d="m13.856139,12.999999l8.653602,-8.65361c0.236503,-0.236503 0.236503,-0.619629 0,-0.856132s-0.619629,-0.236503 -0.856132,0l-8.65361,8.653602l-8.65361,-8.653602c-0.236503,-0.236503 -0.619629,-0.236503 -0.856132,0s-0.236503,0.619629 0,0.856132l8.653602,8.65361l-8.653602,8.65361c-0.236503,0.236503 -0.236503,0.619629 0,0.856132c0.118247,0.118256 0.272765,0.177379 0.428066,0.177379s0.309818,-0.059124 0.428066,-0.177379l8.65361,-8.653602l8.65361,8.653602c0.118247,0.118256 0.272765,0.177379 0.428066,0.177379s0.309818,-0.059124 0.428066,-0.177379c0.236503,-0.236503 0.236503,-0.619629 0,-0.856132l-8.653602,-8.65361z"/>
 </g>
</svg>