<svg xmlns="http://www.w3.org/2000/svg" width="18" height="18" viewBox="0 0 18 18">
  <g id="Group_3165" data-name="Group 3165" transform="translate(3 146)">
    <path id="Path_9479" data-name="Path 9479" d="M16.336,3.8a.15.15,0,0,0,0-.017c-.022-.032-.05-.06-.073-.091q-.252-.343-.534-.661c-.051-.058-.1-.115-.156-.172q-.29-.311-.608-.592c-.039-.035-.076-.071-.115-.1a9.013,9.013,0,0,0-1.707-1.152L13.066.977A8.944,8.944,0,0,0,12.23.605c-.064-.023-.123-.045-.184-.064Q11.666.4,11.275.3C11.2.28,11.12.259,11.042.241c-.257-.06-.514-.105-.778-.143-.08-.012-.158-.027-.239-.037a8.455,8.455,0,0,0-2.04,0c-.08.01-.159.025-.239.037-.263.037-.523.083-.778.143C6.891.259,6.814.28,6.737.3q-.394.1-.772.24L5.781.605a8.938,8.938,0,0,0-.836.372l-.075.037A9.016,9.016,0,0,0,3.157,2.166c-.039.034-.076.07-.115.1a8.364,8.364,0,0,0-.608.592c-.053.057-.1.114-.156.172Q2,3.352,1.745,3.7c-.023.031-.051.059-.073.091a.146.146,0,0,0-.008.017,8.943,8.943,0,0,0,0,10.39.14.14,0,0,0,.008.017c.022.032.05.06.073.091q.251.343.534.661c.051.058.1.115.156.172q.291.311.608.592c.039.035.076.071.115.1a9.013,9.013,0,0,0,1.707,1.152l.075.037a8.943,8.943,0,0,0,.836.372c.064.023.123.045.184.064q.38.137.772.24c.077.021.154.042.233.06.257.06.514.105.778.143.08.012.158.027.239.037a8.455,8.455,0,0,0,2.04,0c.08-.01.159-.025.239-.037.263-.037.523-.083.778-.143.078-.018.156-.039.233-.06q.395-.1.772-.24l.184-.064a8.938,8.938,0,0,0,.836-.372l.075-.037a9.015,9.015,0,0,0,1.707-1.152c.039-.034.076-.07.115-.1a8.187,8.187,0,0,0,.608-.592c.053-.057.1-.114.156-.172q.282-.318.534-.661c.023-.032.051-.059.073-.091a.145.145,0,0,0,.008-.017A8.943,8.943,0,0,0,16.336,3.8ZM15.6,5.022a7.651,7.651,0,0,1,1.085,3.335H12.835a12,12,0,0,0-.36-2.269A11.557,11.557,0,0,0,15.6,5.022ZM10.639,1.461c.036.008.071.02.107.028a6.921,6.921,0,0,1,.682.193c.034.012.068.025.1.037q.332.116.653.257l.111.054q.307.146.6.316l.129.078q.278.17.54.363c.045.033.09.064.134.1a5.867,5.867,0,0,1,.493.413c.041.037.084.074.124.113.165.156.322.322.473.493.019.022.04.043.059.064a10.788,10.788,0,0,1-2.743.881,16.35,16.35,0,0,0-1.731-3.435C10.46,1.433,10.551,1.442,10.639,1.461Zm-4.185,6.9A10.729,10.729,0,0,1,6.808,6.3,18.429,18.429,0,0,0,9,6.428,18.471,18.471,0,0,0,11.2,6.3a10.709,10.709,0,0,1,.352,2.061Zm5.1,1.286A10.729,10.729,0,0,1,11.2,11.7a18.823,18.823,0,0,0-4.393,0,10.712,10.712,0,0,1-.352-2.058ZM9,1.7A15.531,15.531,0,0,1,10.8,5.047,17.023,17.023,0,0,1,9,5.142a17.151,17.151,0,0,1-1.79-.1A15.653,15.653,0,0,1,9,1.7Zm-5.781,2.2c.151-.171.309-.336.473-.493.041-.039.083-.075.124-.113q.238-.217.493-.413c.044-.034.089-.064.134-.1q.262-.193.54-.363l.129-.078q.293-.171.6-.316l.111-.054q.32-.145.653-.257c.033-.012.064-.026.1-.037.223-.075.45-.136.682-.193.036-.008.071-.02.107-.028.088-.019.179-.028.269-.044A16.351,16.351,0,0,0,5.905,4.852a10.787,10.787,0,0,1-2.743-.881C3.182,3.949,3.2,3.928,3.222,3.906ZM2.4,5.022A11.555,11.555,0,0,0,5.531,6.088a12,12,0,0,0-.359,2.269H1.319A7.652,7.652,0,0,1,2.4,5.022Zm0,7.957A7.651,7.651,0,0,1,1.319,9.643H5.171a12,12,0,0,0,.36,2.269A11.554,11.554,0,0,0,2.4,12.979Zm4.963,3.561c-.036-.008-.071-.02-.107-.028a6.92,6.92,0,0,1-.682-.193c-.034-.012-.068-.025-.1-.037q-.332-.116-.653-.257l-.111-.054q-.307-.146-.6-.316l-.129-.078q-.278-.17-.54-.363c-.045-.033-.09-.064-.134-.1a5.867,5.867,0,0,1-.493-.413c-.041-.037-.084-.074-.124-.113-.165-.156-.322-.322-.473-.493-.019-.022-.04-.043-.059-.064A10.788,10.788,0,0,1,5.9,13.148a16.35,16.35,0,0,0,1.731,3.435C7.547,16.567,7.455,16.558,7.367,16.539ZM9,16.3a15.531,15.531,0,0,1-1.792-3.344,16.743,16.743,0,0,1,3.583,0h0A15.65,15.65,0,0,1,9,16.3Zm5.781-2.2c-.151.171-.309.336-.473.493-.041.039-.083.075-.124.113q-.238.217-.493.413l-.134.1q-.262.193-.54.363l-.129.078q-.292.17-.6.316l-.111.054q-.32.145-.653.257c-.033.012-.064.026-.1.037-.223.075-.45.136-.682.193-.036.008-.071.02-.107.028-.088.019-.179.028-.269.044A16.348,16.348,0,0,0,12.1,13.148a10.787,10.787,0,0,1,2.743.881C14.824,14.051,14.8,14.072,14.785,14.094Zm.818-1.116a11.555,11.555,0,0,0-3.127-1.066,12,12,0,0,0,.359-2.269h3.852A7.652,7.652,0,0,1,15.6,12.979Z" transform="translate(-3 -146)" fill="#fff"/>
  </g>
</svg>
