<svg id="service-4" xmlns="http://www.w3.org/2000/svg" width="46.721" height="39.835" viewBox="0 0 46.721 39.835">
  <path id="Path_23" data-name="Path 23" d="M23.337,29.089a7.867,7.867,0,0,0,3.823-6.738c0-.072-.013-.142-.015-.214,4.132-.408,7.979-1.283,7.979-3.13,0-.731-.023-2.222-7.448-3.044L25.8,9.531a5.093,5.093,0,0,0-4.864-3.648,1.027,1.027,0,0,0-.581.18,5.674,5.674,0,0,1-1.04.577,5.78,5.78,0,0,1-1.086-.584,1.028,1.028,0,0,0-.57-.173A5.094,5.094,0,0,0,12.8,9.531l-1.876,6.432c-7.425.822-7.448,2.313-7.448,3.044,0,1.844,3.836,2.72,7.961,3.128,0,.072-.016.144-.016.216a7.867,7.867,0,0,0,3.826,6.74C7.663,30.4,2.214,35.174,2.214,39.379c0,5.572,8.209,6.34,17.08,6.34s17.08-.768,17.08-6.34C36.373,35.173,30.921,30.4,23.337,29.089ZM12.347,43.4q-.732-.069-1.426-.163V32.511c.459-.2.935-.383,1.426-.554ZM14.4,31.368c.4-.094.8-.176,1.211-.249a3.756,3.756,0,0,0,7.378,0c.407.072.808.154,1.2.247v7.756H14.4V31.368Zm4.9-.585c.556,0,1.106.027,1.649.07a1.7,1.7,0,0,1-3.29,0C18.193,30.809,18.74,30.783,19.293,30.783Zm6.946,1.174c.491.17.968.354,1.426.553V43.239q-.7.093-1.426.163Zm-13.007-16.6c1.913.141,3.938.22,6.056.22s4.156-.079,6.074-.221l.188.646a86.478,86.478,0,0,1-12.507,0Zm1.531-5.247a3.034,3.034,0,0,1,2.615-2.159,4.361,4.361,0,0,0,1.944.755h.01a4.227,4.227,0,0,0,1.891-.755,3.034,3.034,0,0,1,2.609,2.158l.944,3.237a86.123,86.123,0,0,1-10.957,0ZM11.69,17.94c.008,0,.015.006.023.007,2.289.222,4.908.339,7.575.339s5.3-.118,7.593-.341c.007,0,.012,0,.019-.006a23.637,23.637,0,0,1,5.674,1.073c-1.592.617-6.041,1.415-13.277,1.415s-11.685-.8-13.277-1.415A23.629,23.629,0,0,1,11.69,17.94Zm1.777,4.411c0-.017,0-.033,0-.05,2.206.144,4.329.177,5.827.177s3.609-.033,5.809-.176c0,.016,0,.032,0,.048a5.822,5.822,0,0,1-11.643,0Zm-9.2,17.027c0-1.963,1.79-4.144,4.606-5.82v9.322C6.146,42.273,4.264,41.214,4.264,39.379ZM14.4,43.553V41.175h9.791v2.378c-1.614.087-3.281.115-4.9.115S16.011,43.639,14.4,43.553Zm15.318-.671V33.559c2.817,1.675,4.607,3.857,4.607,5.82C34.323,41.215,32.441,42.273,29.716,42.881ZM47.91,6.232a1.025,1.025,0,0,0-1.025,1.025v7.185a2.773,2.773,0,0,1-1.763,2.577V7.257a1.025,1.025,0,0,0-2.05,0v9.96H40.718V7.257a1.025,1.025,0,0,0-2.05,0v9.762A2.773,2.773,0,0,1,36.9,14.442V7.257a1.025,1.025,0,0,0-2.05,0v7.185a4.83,4.83,0,0,0,4.825,4.825h1.19V39.152h-.85a1.025,1.025,0,0,0-1.025,1.025v4.141a1.025,1.025,0,0,0,1.025,1.025h3.75A1.025,1.025,0,0,0,44.8,44.319V40.178a1.025,1.025,0,0,0-1.025-1.025h-.85V19.267h1.19a4.83,4.83,0,0,0,4.825-4.825V7.257A1.025,1.025,0,0,0,47.91,6.232ZM42.745,43.294h-1.7V41.2h1.7Z" transform="translate(-2.214 -5.883)" fill="#fff"/>
</svg>
