<svg id="service-6" xmlns="http://www.w3.org/2000/svg" width="37.562" height="40.054" viewBox="0 0 37.562 40.054">
  <g id="Group_7" data-name="Group 7" transform="translate(0)">
    <path id="Path_30" data-name="Path 30" d="M40.038,31.734a2.352,2.352,0,0,0-2.575-3.919c-.6.395-1.225.827-1.848,1.264C33.722,26.16,30.04,24.4,25.122,24.1c-.219-.013-.445-.01-.667-.017v-.693a3.986,3.986,0,0,0,4.865-4.505l-.077-.936c-.379-.017-2.9-1.047-4.789.727v-2.3c.991-.774,4.374-3.679,4.374-7.269,0-4.117-4.449-7.329-4.639-7.464l-.362-.257-.361.258c-.189.135-4.632,3.346-4.632,7.463,0,3.6,3.391,6.506,4.374,7.274v.432a4.931,4.931,0,0,0-4.854-1.325l-1.021.223-.086,1.042c-.294,3.573,2.326,6.067,5.961,5.343V24.07a26.792,26.792,0,0,0-11.118,2.571H11.8V24.774H3.384V39.781H11.8V36.736c2.328,1.314,8.333,4.547,11.281,4.7q.094.005.191,0C27.666,41.441,36.681,34.236,40.038,31.734ZM34.593,29.8c-.285.2-.561.4-.839.591-2.176-2.561-5.659-3.912-10.122-3.912a28,28,0,0,0-6.51.827,17.709,17.709,0,0,0-2.242-.489,26.544,26.544,0,0,1,10.167-1.466C27.717,25.51,32.374,26.316,34.593,29.8Zm-5.158-.655h0c-1.131-.073-2.285.007-3.52.007a19.216,19.216,0,0,1-6.427-1.06,25.356,25.356,0,0,1,4.146-.365c2.849,0,6.662.6,9.092,3.377-.292.2-.586.392-.868.571q0-.031,0-.061A2.458,2.458,0,0,0,29.435,29.143ZM28.062,18.972l.016.018a2.72,2.72,0,0,1-2.77,3.239l1.376-1.206-.822-.938-1.366,1.2A2.708,2.708,0,0,1,28.062,18.972ZM20.081,9.107c0-2.851,2.745-5.348,3.748-6.166,1,.816,3.752,3.308,3.752,6.166,0,2.379-1.912,4.511-3.129,5.629V13.405l1.717-1.29-.749-1-.967.727v-1.22l2.225-1.888-.807-.951-1.418,1.2V7.882H23.2V8.79L21.643,7.177l-.9.867,2.458,2.54V11.7L22.1,10.689l-.842.92L23.2,13.394v1.341C21.989,13.617,20.081,11.485,20.081,9.107Zm-1.592,7.748.01-.122.119-.026c2.469-.538,4.446.775,4.577,3.31l-1.946-1.7-.822.938,1.946,1.7C19.806,21.167,18.286,19.334,18.489,16.855ZM10.553,38.533H4.631V26.022h5.922V38.533ZM11.8,35.3V27.888h.764c5.312,0,6.7,2.509,13.348,2.509,1.3,0,2.3-.08,3.48-.008a1.22,1.22,0,0,1,1.216,1.221,1.2,1.2,0,0,1-1.2,1.213l-.018,0H20.859v1.247h8.61c1.739,0,5.382-3.047,8.624-5.184a1.084,1.084,0,0,1,1.071.041,1.1,1.1,0,0,1,.112,1.816c-2.956,2.278-12.364,9.626-16.13,9.444C20.187,40.037,13.324,36.176,11.8,35.3Z" transform="translate(-3.384 -1.386)" fill="#fff"/>
    <rect id="Rectangle_12" data-name="Rectangle 12" width="1.247" height="1.272" transform="translate(4.204 30.843)" fill="#fff"/>
    <rect id="Rectangle_13" data-name="Rectangle 13" width="1.247" height="1.272" transform="translate(4.204 32.869)" fill="#fff"/>
    <rect id="Rectangle_14" data-name="Rectangle 14" width="1.247" height="1.272" transform="translate(4.204 34.894)" fill="#fff"/>
    <path id="Path_31" data-name="Path 31" d="M18.147,19.08v.128a.624.624,0,1,0,1.247,0V19.08a.624.624,0,1,0-1.247,0Z" transform="translate(-8.941 -7.811)" fill="#fff"/>
    <path id="Path_32" data-name="Path 32" d="M23.028,6.981v.128a.624.624,0,0,0,1.247,0V6.981a.624.624,0,0,0-1.247,0Z" transform="translate(-10.777 -3.257)" fill="#fff"/>
    <path id="Path_33" data-name="Path 33" d="M53.869,27.126v.128a.624.624,0,1,0,1.247,0v-.128a.624.624,0,1,0-1.247,0Z" transform="translate(-22.385 -10.839)" fill="#fff"/>
    <path id="Path_34" data-name="Path 34" d="M14.128,29.441v.128a.624.624,0,0,0,1.247,0v-.128a.624.624,0,0,0-1.247,0Z" transform="translate(-7.428 -11.71)" fill="#fff"/>
    <path id="Path_35" data-name="Path 35" d="M8.14,22.689v.128a.624.624,0,0,0,1.247,0v-.128a.624.624,0,0,0-1.247,0Z" transform="translate(-5.174 -9.169)" fill="#fff"/>
    <path id="Path_36" data-name="Path 36" d="M55.88,13.748v.128a.624.624,0,0,0,1.247,0v-.128a.624.624,0,0,0-1.247,0Z" transform="translate(-23.142 -5.804)" fill="#fff"/>
    <path id="Path_37" data-name="Path 37" d="M48.911,20.164v.128a.624.624,0,0,0,1.247,0v-.128a.624.624,0,1,0-1.247,0Z" transform="translate(-20.519 -8.219)" fill="#fff"/>
  </g>
</svg>
