<svg id="noun_website_2197471" xmlns="http://www.w3.org/2000/svg" width="16.02" height="15.787" viewBox="0 0 16.02 15.787">
  <g id="Group_4216" data-name="Group 4216" transform="translate(0 0)">
    <path id="Path_10422" data-name="Path 10422" d="M7.342,297.692a16.02,16.02,0,0,0,1.773-4.777h4.24a8.01,8.01,0,0,1-6.014,4.777Z" transform="translate(2.033 -281.905)" fill="#89a831"/>
    <path id="Path_10423" data-name="Path 10423" d="M6.156,297.007a.94.94,0,0,0,1.656,0,15.221,15.221,0,0,0,1.493-4.093H4.663a15.219,15.219,0,0,0,1.493,4.093Z" transform="translate(1.025 -281.905)" fill="#89a831"/>
    <path id="Path_10424" data-name="Path 10424" d="M7,297.692a8.01,8.01,0,0,1-6.014-4.777h4.24A16.02,16.02,0,0,0,7,297.692Z" transform="translate(-0.357 -281.905)" fill="#89a831"/>
    <path id="Path_10425" data-name="Path 10425" d="M8.731,288.968a16.021,16.021,0,0,1,0,4.629h4.392a8.011,8.011,0,0,0,0-4.629Z" transform="translate(2.555 -283.389)" fill="#89a831"/>
    <path id="Path_10426" data-name="Path 10426" d="M9.539,293.6a15.22,15.22,0,0,0,0-4.629H4.606a15.219,15.219,0,0,0,0,4.629Z" transform="translate(0.937 -283.389)" fill="#89a831"/>
    <path id="Path_10427" data-name="Path 10427" d="M5.262,293.6a16.021,16.021,0,0,1,0-4.629H.871a8.011,8.011,0,0,0,0,4.629Z" transform="translate(-0.529 -283.389)" fill="#89a831"/>
    <path id="Path_10428" data-name="Path 10428" d="M7.342,284.914a16.02,16.02,0,0,1,1.773,4.777h4.24a8.01,8.01,0,0,0-6.014-4.777Z" transform="translate(2.033 -284.914)" fill="#89a831"/>
    <path id="Path_10429" data-name="Path 10429" d="M6.156,285.547a15.22,15.22,0,0,0-1.493,4.093H9.306a15.218,15.218,0,0,0-1.493-4.093.94.94,0,0,0-1.656,0Z" transform="translate(1.025 -284.862)" fill="#89a831"/>
    <path id="Path_10430" data-name="Path 10430" d="M.988,289.692h4.24A16.021,16.021,0,0,1,7,284.914a8.01,8.01,0,0,0-6.014,4.777Z" transform="translate(-0.357 -284.914)" fill="#89a831"/>
  </g>
</svg>
