<svg id="Group_25" data-name="Group 25" xmlns="http://www.w3.org/2000/svg" width="22" height="22.288" viewBox="0 0 22 22.288">
  <g id="Group_24" data-name="Group 24" transform="translate(0 0)">
    <path id="Path_47" data-name="Path 47" d="M465.891,225.919a11.145,11.145,0,1,1,11-11.144A11.086,11.086,0,0,1,465.891,225.919Zm0-21.23a10.086,10.086,0,1,0,9.955,10.086A10.032,10.032,0,0,0,465.891,204.69Zm3.709,5.564a.825.825,0,1,0,.814.825A.819.819,0,0,0,469.6,210.254Zm-3.619,1.057a3.464,3.464,0,1,0,3.42,3.464A3.446,3.446,0,0,0,465.981,211.311Zm0,5.683a2.219,2.219,0,1,1,2.19-2.219A2.207,2.207,0,0,1,465.981,216.994Zm6.9-5.1a4.2,4.2,0,0,0-4.171-4.225h-5.5a4.2,4.2,0,0,0-4.17,4.225v5.577a4.2,4.2,0,0,0,4.17,4.225h5.5a4.2,4.2,0,0,0,4.171-4.225Zm-1.306,5.577a2.883,2.883,0,0,1-2.865,2.9h-5.5a2.883,2.883,0,0,1-2.864-2.9V211.9a2.883,2.883,0,0,1,2.864-2.9h5.5a2.883,2.883,0,0,1,2.865,2.9Z" transform="translate(-454.891 -203.631)" fill="#fff"/>
  </g>
</svg>
