<svg id="Group_26" data-name="Group 26" xmlns="http://www.w3.org/2000/svg" width="22" height="22" viewBox="0 0 22 22">
  <g id="Group_23" data-name="Group 23" transform="translate(0 0)">
    <g id="Group_21" data-name="Group 21">
      <path id="Path_45" data-name="Path 45" d="M142.32,224.947a11,11,0,1,1,11-11A11.012,11.012,0,0,1,142.32,224.947Zm0-20.818a9.818,9.818,0,1,0,9.818,9.819A9.829,9.829,0,0,0,142.32,204.129Z" transform="translate(-131.32 -202.947)" fill="#fff"/>
    </g>
    <g id="Group_22" data-name="Group 22" transform="translate(7.953 4.466)">
      <path id="Path_46" data-name="Path 46" d="M152.322,220.467v6.318a.165.165,0,0,0,.165.165h2.346a.165.165,0,0,0,.165-.165v-6.421h1.7a.164.164,0,0,0,.164-.151l.164-1.935a.165.165,0,0,0-.164-.179H155v-1.372a.583.583,0,0,1,.582-.583h1.311a.165.165,0,0,0,.165-.165v-1.934a.165.165,0,0,0-.165-.165h-2.215a2.354,2.354,0,0,0-2.354,2.354V218.1h-1.173a.165.165,0,0,0-.165.165V220.2a.164.164,0,0,0,.165.165h1.173Z" transform="translate(-150.984 -213.881)" fill="#fff" fill-rule="evenodd"/>
    </g>
  </g>
</svg>
