<svg xmlns="http://www.w3.org/2000/svg" width="17.928" height="19.155" viewBox="0 0 17.928 19.155">
  <g id="Group_3238" data-name="Group 3238" transform="translate(-1616.088 -11)">
    <path id="Path_650" data-name="Path 650" d="M215.89,328.587l-.255-.275a.909.909,0,0,0-1.331,1.239l.255.274a.909.909,0,0,0,1.331-1.238Z" transform="translate(1417.882 -299.96)" fill="#fff"/>
    <path id="Path_651" data-name="Path 651" d="M209.465,321.673a7.388,7.388,0,0,0,1.938-5.72h0a7.412,7.412,0,1,0-7.383,8.117c.234,0,.472-.011.71-.034a7.359,7.359,0,0,0,3.352-1.181l2.367,2.547a.909.909,0,0,0,1.331-1.237Zm-4.908.553a5.594,5.594,0,0,1-1.064-11.137c.18-.017.358-.025.535-.025a5.6,5.6,0,0,1,5.566,5.063h0A5.6,5.6,0,0,1,204.557,322.226Z" transform="translate(1419.474 -298.246)" fill="#fff"/>
  </g>
</svg>
