<svg id="service-5" xmlns="http://www.w3.org/2000/svg" width="39.835" height="39.835" viewBox="0 0 39.835 39.835">
  <path id="Path_24" data-name="Path 24" d="M29.386,21.287a.664.664,0,0,0-.849-.226l-3.984,1.992.594,1.188,3.459-1.73,1,1.5a.663.663,0,0,0,.881.208l3.687-2.107.725,1.208a.664.664,0,0,0,.57.323l.053,0a.664.664,0,0,0,.564-.415l1.328-3.32A.665.665,0,0,0,36.8,19h-3.32a.663.663,0,0,0-.569,1.005l.584.972L30.37,22.762Zm6.434-.959-.467,1.167-.7-1.167Z" transform="translate(-9.579 -7.713)" fill="#fff"/>
  <path id="Path_25" data-name="Path 25" d="M43.188,16.606H40.829q-.141-.639-.335-1.259l2.04-1.178a.664.664,0,0,0,.243-.907l-2.656-4.6a.663.663,0,0,0-.907-.243L37.171,9.6q-.439-.478-.92-.92l1.18-2.045a.664.664,0,0,0-.243-.907l-4.6-2.656a.664.664,0,0,0-.907.243L30.5,5.357c-.412-.129-.832-.24-1.258-.335V2.664A.664.664,0,0,0,28.581,2H23.27a.664.664,0,0,0-.664.664V5.022q-.639.141-1.259.335L20.17,3.317a.669.669,0,0,0-.4-.309.659.659,0,0,0-.5.066l-4.6,2.656a.663.663,0,0,0-.243.907L15.6,8.681q-.479.44-.92.92L12.636,8.42a.663.663,0,0,0-.907.243l-2.656,4.6a.664.664,0,0,0,.243.907l2.04,1.178c-.129.412-.241.833-.335,1.259H8.664A.664.664,0,0,0,8,17.27v4.647H9.328V17.934h2.237a.664.664,0,0,0,.653-.544,13.871,13.871,0,0,1,.567-2.125.664.664,0,0,0-.293-.8l-1.935-1.117L12.548,9.9l1.939,1.119a.664.664,0,0,0,.837-.144,14.035,14.035,0,0,1,1.555-1.555.665.665,0,0,0,.143-.837L15.9,6.547l3.449-1.992L20.469,6.49a.663.663,0,0,0,.8.293,13.806,13.806,0,0,1,2.124-.566.663.663,0,0,0,.544-.652V3.328h3.984V5.565a.664.664,0,0,0,.544.653,13.786,13.786,0,0,1,2.124.566.664.664,0,0,0,.8-.293L32.5,4.556l3.449,1.992L34.83,8.486a.666.666,0,0,0,.143.837,14.035,14.035,0,0,1,1.555,1.555.664.664,0,0,0,.837.144L39.3,9.9,41.3,13.352l-1.935,1.117a.663.663,0,0,0-.293.8,14.026,14.026,0,0,1,.567,2.125.663.663,0,0,0,.653.543h2.237v3.984H40.287a.664.664,0,0,0-.653.544,13.872,13.872,0,0,1-.567,2.125.664.664,0,0,0,.293.8L41.3,26.5,39.3,29.95,37.365,28.83a.664.664,0,0,0-.837.144,14.036,14.036,0,0,1-1.555,1.555.665.665,0,0,0-.143.837L35.949,33.3,32.5,35.3l-1.117-1.935a.662.662,0,0,0-.8-.293,13.8,13.8,0,0,1-2.124.566.663.663,0,0,0-.544.652v2.237H25.262v1.328h3.32a.664.664,0,0,0,.664-.664V34.829q.639-.141,1.259-.335l1.178,2.04a.664.664,0,0,0,.907.243l4.6-2.656a.663.663,0,0,0,.243-.907l-1.18-2.045q.479-.44.92-.92l2.044,1.18a.665.665,0,0,0,.907-.243l2.656-4.6a.664.664,0,0,0-.243-.907L40.495,24.5c.129-.412.241-.833.335-1.259h2.358a.664.664,0,0,0,.664-.664V17.269A.664.664,0,0,0,43.188,16.606Z" transform="translate(-4.016 -2)" fill="#fff"/>
  <path id="Path_26" data-name="Path 26" d="M40.674,23.287A11.287,11.287,0,0,0,18.3,21.171l1.3.247A9.96,9.96,0,1,1,31.255,33.071l.248,1.3A11.292,11.292,0,0,0,40.674,23.287Z" transform="translate(-7.478 -5.361)" fill="#fff"/>
  <path id="Path_27" data-name="Path 27" d="M5.32,37.959a9.978,9.978,0,0,0,.515,3.147L3.6,43.337a.664.664,0,0,0,0,.939l.469.469L2.194,46.623a.663.663,0,0,0,0,.939l2.816,2.817a.664.664,0,0,0,.939,0L7.828,48.5l.469.469a.664.664,0,0,0,.939,0l1.942-1.942a9.953,9.953,0,1,0-5.858-9.07ZM5.48,48.971,3.6,47.092l1.408-1.409,1.878,1.878Zm3.286-1.408L5.011,43.807l1.374-1.374a9.827,9.827,0,0,0,3.573,3.938Zm6.512-18.235a8.632,8.632,0,1,1-6.1,2.528A8.574,8.574,0,0,1,15.278,29.328Z" transform="translate(-2 -10.738)" fill="#fff"/>
  <path id="Path_28" data-name="Path 28" d="M18.3,46.606A7.3,7.3,0,1,0,11,39.3,7.312,7.312,0,0,0,18.3,46.606Zm0-13.278A5.975,5.975,0,1,1,12.328,39.3,5.982,5.982,0,0,1,18.3,33.328Z" transform="translate(-5.025 -12.082)" fill="#fff"/>
  <path id="Path_29" data-name="Path 29" d="M20.387,37.328a2.633,2.633,0,0,1,1.062.221l.531-1.217a3.986,3.986,0,0,0-4.78,1.261l1.062.8A2.634,2.634,0,0,1,20.387,37.328Z" transform="translate(-7.108 -13.427)" fill="#fff"/>
  <rect id="Rectangle_10" data-name="Rectangle 10" width="2.402" height="6.404" transform="translate(26.165 16.62)" fill="#fff"/>
  <rect id="Rectangle_11" data-name="Rectangle 11" width="1.601" height="5.604" transform="translate(23.763 17.42)" fill="#fff"/>
</svg>
