<svg xmlns="http://www.w3.org/2000/svg" width="39.944" height="40.596" viewBox="0 0 39.944 40.596">
  <g id="service-1" transform="translate(0 0.243)">
    <path id="Path_21" data-name="Path 21" d="M2.177,28.485a.665.665,0,0,0-.188.564c.019.133.488,3.338,2.184,5.035a5.19,5.19,0,0,0,2.466,1.331v4.852a2,2,0,1,0,3.992,0V35.417a5.184,5.184,0,0,0,2.478-1.334c1.7-1.7,2.166-4.9,2.184-5.035a.665.665,0,0,0-.752-.752c-.035,0-.285.042-.66.123a11.827,11.827,0,0,0,1.412-4.041.665.665,0,0,0-.752-.752c-.035.005-.281.042-.651.121a11.833,11.833,0,0,0,1.4-4.027.665.665,0,0,0-.752-.752c-.035.005-.273.04-.633.117a11.869,11.869,0,0,0,1.385-4,.665.665,0,0,0-.752-.752c-.035.005-.285.043-.66.123a11.821,11.821,0,0,0,1.412-4.04.665.665,0,0,0-.752-.752,11.244,11.244,0,0,0-4.47,1.705,5.347,5.347,0,0,0,1-2.994c0-2.4-1.934-5-2.017-5.105a.689.689,0,0,0-1.065,0c-.083.11-2.016,2.705-2.016,5.105a5.215,5.215,0,0,0,.812,2.7A11.834,11.834,0,0,0,2.74,9.667a.673.673,0,0,0-.564.188.665.665,0,0,0-.188.564A11.837,11.837,0,0,0,3.4,14.459c-.375-.081-.624-.118-.66-.123a.673.673,0,0,0-.564.189.665.665,0,0,0-.188.563,11.869,11.869,0,0,0,1.385,4c-.361-.077-.6-.112-.633-.117a.677.677,0,0,0-.564.188.665.665,0,0,0-.188.564,11.849,11.849,0,0,0,1.4,4.027c-.37-.079-.616-.116-.651-.121a.665.665,0,0,0-.752.752A11.843,11.843,0,0,0,3.4,28.423c-.375-.081-.624-.118-.66-.123a.67.67,0,0,0-.564.185ZM3.5,29.809a7.534,7.534,0,0,1,3.332,1.613A4.458,4.458,0,0,1,7.97,34.278H7.963a4.452,4.452,0,0,1-2.85-1.136A7.558,7.558,0,0,1,3.5,29.809ZM8.5,12.8l.019,0a.66.66,0,0,0,.31-.088c-.067.112-.133.224-.19.337-.043-.084-.089-.168-.138-.252ZM8.3,16.995c.162,0,.278-.006.344-.011s.183.011.345.011h.12a4.973,4.973,0,0,0-.466.736,4.914,4.914,0,0,0-.466-.736.87.87,0,0,1,.123,0Zm1.015,3.327a4.458,4.458,0,0,1,1.136-2.857,7.549,7.549,0,0,1,3.333-1.612,7.54,7.54,0,0,1-1.613,3.333,4.458,4.458,0,0,1-2.856,1.134Zm-1.341,0a4.458,4.458,0,0,1-2.857-1.136A7.562,7.562,0,0,1,3.5,15.848a7.518,7.518,0,0,1,3.332,1.613A4.458,4.458,0,0,1,7.97,20.319ZM8.3,21.663c.162,0,.278-.007.344-.011s.183.011.345.011h.093a4.919,4.919,0,0,0-.438.7,4.974,4.974,0,0,0-.437-.7.55.55,0,0,1,.093,0Zm1.015,3.289A4.458,4.458,0,0,1,10.449,22.1a7.555,7.555,0,0,1,3.333-1.611,7.534,7.534,0,0,1-1.613,3.332A4.452,4.452,0,0,1,9.312,24.952Zm-1.341,0a4.453,4.453,0,0,1-2.857-1.136A7.556,7.556,0,0,1,3.5,20.483,7.526,7.526,0,0,1,6.835,22.1,4.458,4.458,0,0,1,7.97,24.952ZM8.3,26.294c.162,0,.278-.006.344-.011s.183.011.345.011H9.1a4.943,4.943,0,0,0-.455.724,4.942,4.942,0,0,0-.455-.724Zm1.015,3.315a4.458,4.458,0,0,1,1.136-2.857,7.555,7.555,0,0,1,3.333-1.611,7.534,7.534,0,0,1-1.613,3.332A4.452,4.452,0,0,1,9.312,29.609Zm-1.341,0a4.453,4.453,0,0,1-2.857-1.136A7.556,7.556,0,0,1,3.5,25.14a7.526,7.526,0,0,1,3.332,1.612A4.458,4.458,0,0,1,7.97,29.609ZM8.3,30.951c.162,0,.278-.006.344-.011s.183.011.345.011h.12a4.938,4.938,0,0,0-.466.736,4.88,4.88,0,0,0-.466-.736Zm1,9.315a.665.665,0,0,1-1.331,0V35.612c.12.006,1.216.005,1.331,0Zm2.868-7.124a4.448,4.448,0,0,1-2.85,1.136H9.312a4.458,4.458,0,0,1,1.136-2.856,7.549,7.549,0,0,1,3.333-1.612A7.536,7.536,0,0,1,12.169,33.142ZM13.781,11.18a7.536,7.536,0,0,1-1.613,3.333,4.458,4.458,0,0,1-2.856,1.136,4.458,4.458,0,0,1,1.136-2.857,7.549,7.549,0,0,1,3.333-1.611Zm-5.26-6.3a7.556,7.556,0,0,1,1.217,3.5A4.458,4.458,0,0,1,8.521,11.2,4.458,4.458,0,0,1,7.3,8.377a7.556,7.556,0,0,1,1.217-3.5ZM6.834,12.792A4.458,4.458,0,0,1,7.97,15.649a4.458,4.458,0,0,1-2.857-1.136A7.558,7.558,0,0,1,3.5,11.179a7.534,7.534,0,0,1,3.332,1.613Z" transform="translate(-1.981 -1.909)" fill="#fff"/>
    <path id="Path_22" data-name="Path 22" d="M23.176,28.485a.665.665,0,0,0-.188.564c.019.133.488,3.338,2.184,5.035a5.19,5.19,0,0,0,2.466,1.331v4.852a2,2,0,0,0,3.992,0V35.417a5.184,5.184,0,0,0,2.478-1.334,8.383,8.383,0,0,0,1.858-3.56,8.383,8.383,0,0,0,1.858,3.56,5.19,5.19,0,0,0,2.466,1.331v4.852a2,2,0,1,0,3.992,0V35.417a5.19,5.19,0,0,0,2.478-1.334c1.7-1.7,2.165-4.9,2.184-5.035a.665.665,0,0,0-.752-.752c-.036,0-.285.042-.66.123a11.843,11.843,0,0,0,1.412-4.041.665.665,0,0,0-.752-.752c-.035.005-.281.042-.651.121a11.849,11.849,0,0,0,1.4-4.027.665.665,0,0,0-.752-.752c-.035.005-.273.04-.633.117a11.869,11.869,0,0,0,1.385-4,.665.665,0,0,0-.752-.752c-.036.005-.285.043-.66.123a11.837,11.837,0,0,0,1.412-4.04.665.665,0,0,0-.752-.752,11.239,11.239,0,0,0-4.47,1.705,5.352,5.352,0,0,0,1-2.994c0-2.4-1.933-5-2.016-5.105a.689.689,0,0,0-1.065,0c-.083.108-2.015,2.7-2.015,5.1a5.215,5.215,0,0,0,.808,2.7,11.832,11.832,0,0,0-4.041-1.413.665.665,0,0,0-.752.752,11.821,11.821,0,0,0,1.412,4.04c-.375-.081-.625-.118-.66-.123a.665.665,0,0,0-.425.1.665.665,0,0,0-.426-.1,12.3,12.3,0,0,0-3.62,1.169,4.668,4.668,0,0,0,.147-1.14c0-2.4-1.934-5-2.017-5.105a.689.689,0,0,0-1.065,0c-.083.11-2.016,2.705-2.016,5.105a4.675,4.675,0,0,0,.113,1,12.565,12.565,0,0,0-3.347-1.03.666.666,0,0,0-.752.752,11.869,11.869,0,0,0,1.385,4c-.361-.077-.6-.112-.633-.117a.675.675,0,0,0-.564.188.665.665,0,0,0-.188.564,11.849,11.849,0,0,0,1.4,4.029c-.37-.079-.616-.116-.651-.121a.665.665,0,0,0-.752.752A11.843,11.843,0,0,0,24.4,28.423c-.375-.081-.624-.118-.66-.123A.665.665,0,0,0,23.176,28.485ZM24.5,29.809a7.534,7.534,0,0,1,3.332,1.613,4.458,4.458,0,0,1,1.136,2.856h-.007a4.452,4.452,0,0,1-2.85-1.136A7.558,7.558,0,0,1,24.5,29.809ZM35.967,21.2a10.2,10.2,0,0,0,1.077,2.552c-.371-.079-.616-.116-.651-.121a.657.657,0,0,0-.425.1.655.655,0,0,0-.426-.1c-.035.005-.281.042-.651.121A10.2,10.2,0,0,0,35.967,21.2ZM42.155,12.8l.018,0a.661.661,0,0,0,.315-.085c-.067.112-.133.224-.19.337C42.251,12.971,42.2,12.887,42.155,12.8Zm-.206,4.192c.162,0,.279-.006.345-.011s.182.011.344.011h.12a4.913,4.913,0,0,0-.466.736,4.973,4.973,0,0,0-.466-.736.884.884,0,0,1,.124,0Zm-1.464,9.761a4.462,4.462,0,0,1,1.138,2.854,4.45,4.45,0,0,1-2.857-1.136,7.557,7.557,0,0,1-1.612-3.333,7.528,7.528,0,0,1,3.333,1.612Zm1.464,4.2c.162,0,.279-.006.345-.011s.182.011.344.011h.12a4.88,4.88,0,0,0-.466.736,4.938,4.938,0,0,0-.466-.736Zm1.015-1.342A4.458,4.458,0,0,1,44.1,26.753a7.552,7.552,0,0,1,3.333-1.611,7.526,7.526,0,0,1-1.612,3.332,4.458,4.458,0,0,1-2.857,1.136Zm-.671-2.595a4.942,4.942,0,0,0-.455-.721h.11c.162,0,.279-.006.345-.011s.182.011.344.011h.111a4.943,4.943,0,0,0-.455.721Zm.671-2.063A4.458,4.458,0,0,1,44.1,22.1a7.552,7.552,0,0,1,3.333-1.611,7.526,7.526,0,0,1-1.612,3.332,4.458,4.458,0,0,1-2.857,1.136Zm-.671-2.595a4.918,4.918,0,0,0-.438-.7h.093c.162,0,.279-.007.345-.011s.182.011.344.011h.093a4.974,4.974,0,0,0-.437.7Zm.671-2.039A4.454,4.454,0,0,1,44.1,17.461a7.547,7.547,0,0,1,3.333-1.613,7.531,7.531,0,0,1-1.612,3.333,4.462,4.462,0,0,1-2.857,1.138Zm-1.341,0a4.458,4.458,0,0,1-2.857-1.136,7.563,7.563,0,0,1-1.612-3.333,7.522,7.522,0,0,1,3.333,1.613,4.458,4.458,0,0,1,1.136,2.858Zm-1.136,1.776a4.462,4.462,0,0,1,1.136,2.858,4.45,4.45,0,0,1-2.857-1.136,7.557,7.557,0,0,1-1.612-3.333A7.528,7.528,0,0,1,40.487,22.1Zm-7.319,6.378a4.452,4.452,0,0,1-2.856,1.137,4.458,4.458,0,0,1,1.136-2.857,7.555,7.555,0,0,1,3.333-1.611,7.534,7.534,0,0,1-1.613,3.332Zm0-4.657a4.452,4.452,0,0,1-2.856,1.137A4.458,4.458,0,0,1,31.448,22.1a7.555,7.555,0,0,1,3.333-1.611,7.534,7.534,0,0,1-1.613,3.332ZM29.3,21.66c.162,0,.278-.007.344-.011s.183.011.345.011h.093a4.919,4.919,0,0,0-.438.7,4.974,4.974,0,0,0-.437-.7c.029,0,.066,0,.093,0Zm-.327,3.291a4.453,4.453,0,0,1-2.857-1.136A7.556,7.556,0,0,1,24.5,20.483a7.526,7.526,0,0,1,3.332,1.612,4.458,4.458,0,0,1,1.136,2.858Zm.327,1.343c.162,0,.278-.006.344-.011s.183.011.345.011h.11a4.943,4.943,0,0,0-.455.724,4.942,4.942,0,0,0-.455-.724ZM28.97,29.61a4.453,4.453,0,0,1-2.857-1.136A7.556,7.556,0,0,1,24.5,25.141a7.526,7.526,0,0,1,3.332,1.612A4.458,4.458,0,0,1,28.97,29.61Zm.327,1.342c.162,0,.278-.006.344-.011s.183.011.345.011h.12a4.938,4.938,0,0,0-.466.736,4.879,4.879,0,0,0-.466-.736Zm1,9.315a.665.665,0,0,1-1.331,0V35.612c.12.006,1.216.005,1.331,0Zm2.868-7.124a4.448,4.448,0,0,1-2.85,1.136h-.007a4.458,4.458,0,0,1,1.136-2.856,7.549,7.549,0,0,1,3.333-1.612A7.536,7.536,0,0,1,33.168,33.143Zm2.8-4.743a.655.655,0,0,0-.426-.1c-.035,0-.285.042-.66.123a10.18,10.18,0,0,0,1.086-2.566,10.18,10.18,0,0,0,1.086,2.569c-.375-.081-.625-.118-.66-.123A.657.657,0,0,0,35.967,28.4Zm1.186,1.409a7.536,7.536,0,0,1,3.333,1.613,4.458,4.458,0,0,1,1.136,2.856h-.007a4.451,4.451,0,0,1-2.85-1.136,7.56,7.56,0,0,1-1.612-3.333Zm5.8,10.457a.665.665,0,0,1-1.331,0V35.612c.12.006,1.216.005,1.331,0Zm2.868-7.124a4.45,4.45,0,0,1-2.85,1.136h-.007A4.458,4.458,0,0,1,44.1,31.422a7.547,7.547,0,0,1,3.333-1.612,7.528,7.528,0,0,1-1.612,3.333ZM47.433,11.18a7.528,7.528,0,0,1-1.612,3.333,4.458,4.458,0,0,1-2.857,1.136A4.458,4.458,0,0,1,44.1,12.792,7.547,7.547,0,0,1,47.433,11.18Zm-5.26-6.3a7.548,7.548,0,0,1,1.217,3.5A4.452,4.452,0,0,1,42.173,11.2a4.458,4.458,0,0,1-1.216-2.824,7.563,7.563,0,0,1,1.216-3.5Zm-1.687,7.911a4.458,4.458,0,0,1,1.136,2.856,4.458,4.458,0,0,1-2.857-1.136,7.56,7.56,0,0,1-1.612-3.333,7.536,7.536,0,0,1,3.333,1.613Zm-4.52,3.77a10.264,10.264,0,0,0,1.059,2.524c-.361-.077-.6-.112-.633-.117a.665.665,0,0,0-.425.1.665.665,0,0,0-.426-.1c-.035.005-.273.04-.633.117a10.264,10.264,0,0,0,1.059-2.524Zm-2.8,2.619a4.458,4.458,0,0,1-2.856,1.136,4.458,4.458,0,0,1,1.136-2.857,7.549,7.549,0,0,1,3.333-1.612A7.54,7.54,0,0,1,33.168,19.182ZM29.521,10.87a7.556,7.556,0,0,1,1.217,3.5,4.458,4.458,0,0,1-1.217,2.824A4.458,4.458,0,0,1,28.3,14.365a7.556,7.556,0,0,1,1.217-3.5Zm-1.687,6.592a4.458,4.458,0,0,1,1.136,2.857,4.458,4.458,0,0,1-2.857-1.136A7.562,7.562,0,0,1,24.5,15.849a7.518,7.518,0,0,1,3.332,1.613Z" transform="translate(-9.008 -1.91)" fill="#fff"/>
    <rect id="Rectangle_1" data-name="Rectangle 1" width="1" height="1" transform="translate(22.674 2.757)" fill="#fff"/>
    <rect id="Rectangle_2" data-name="Rectangle 2" width="1" height="1" transform="translate(22.674 4.757)" fill="#fff"/>
    <rect id="Rectangle_3" data-name="Rectangle 3" width="1" height="1" transform="translate(21.674 3.757)" fill="#fff"/>
    <rect id="Rectangle_4" data-name="Rectangle 4" width="2" height="1" transform="translate(23.674 3.757)" fill="#fff"/>
    <rect id="Rectangle_5" data-name="Rectangle 5" width="1" height="2" transform="translate(15.674 -0.243)" fill="#fff"/>
    <rect id="Rectangle_6" data-name="Rectangle 6" width="1" height="1" transform="translate(15.674 3.757)" fill="#fff"/>
    <rect id="Rectangle_7" data-name="Rectangle 7" width="1" height="2" transform="translate(14.674 1.757)" fill="#fff"/>
    <rect id="Rectangle_8" data-name="Rectangle 8" width="1" height="2" transform="translate(16.674 1.757)" fill="#fff"/>
  </g>
</svg>
