<svg id="service-3" xmlns="http://www.w3.org/2000/svg" width="37.135" height="39.92" viewBox="0 0 37.135 39.92">
  <g id="Group_5" data-name="Group 5" transform="translate(0)">
    <path id="Path_20" data-name="Path 20" d="M28.437,960.4a.935.935,0,0,0-.508.246,5.519,5.519,0,0,0-1.393,2.349,5.56,5.56,0,0,0-2.364,1.406.961.961,0,0,0,0,1.261,5.567,5.567,0,0,0,2.364,1.406,5.485,5.485,0,0,0,1.393,2.349.963.963,0,0,0,1.276,0,5.485,5.485,0,0,0,1.393-2.349,5.567,5.567,0,0,0,2.364-1.406.961.961,0,0,0,0-1.261,5.561,5.561,0,0,0-2.364-1.406,5.519,5.519,0,0,0-1.393-2.349.943.943,0,0,0-.769-.246Zm.131,2.421a4.359,4.359,0,0,1,.421,1.1.949.949,0,0,0,.682.7.631.631,0,1,1,0,.841.949.949,0,0,0-.682.681,4.359,4.359,0,0,1-.421,1.1,4.359,4.359,0,0,1-.421-1.1.949.949,0,0,0-.682-.681.631.631,0,1,1,0-.841.949.949,0,0,0,.682-.7A4.359,4.359,0,0,1,28.567,962.82Zm-8.022,3.146a.936.936,0,0,0-.508.247,5.519,5.519,0,0,0-1.393,2.349,5.561,5.561,0,0,0-2.364,1.406.961.961,0,0,0,0,1.261,5.567,5.567,0,0,0,2.364,1.406,5.486,5.486,0,0,0,1.393,2.349.964.964,0,0,0,1.276,0,5.486,5.486,0,0,0,1.393-2.349,5.567,5.567,0,0,0,2.364-1.406.961.961,0,0,0,0-1.261,5.561,5.561,0,0,0-2.364-1.406,5.519,5.519,0,0,0-1.393-2.349.943.943,0,0,0-.769-.247Zm15.782,0a.936.936,0,0,0-.508.247,5.519,5.519,0,0,0-1.393,2.349,5.561,5.561,0,0,0-2.364,1.406.961.961,0,0,0,0,1.261,5.567,5.567,0,0,0,2.364,1.406,5.486,5.486,0,0,0,1.393,2.349.964.964,0,0,0,1.276,0,5.486,5.486,0,0,0,1.393-2.349,5.567,5.567,0,0,0,2.364-1.406.961.961,0,0,0,0-1.261,5.561,5.561,0,0,0-2.364-1.406,5.519,5.519,0,0,0-1.393-2.349.943.943,0,0,0-.769-.247Zm-15.651,2.421a4.358,4.358,0,0,1,.421,1.1.949.949,0,0,0,.682.7.631.631,0,1,1,0,.841.948.948,0,0,0-.682.681,4.359,4.359,0,0,1-.421,1.1,4.359,4.359,0,0,1-.421-1.1.948.948,0,0,0-.682-.681.631.631,0,1,1,0-.841.949.949,0,0,0,.682-.7A4.358,4.358,0,0,1,20.676,968.388Zm15.782,0a4.358,4.358,0,0,1,.421,1.1.949.949,0,0,0,.682.7.631.631,0,1,1,0,.841.948.948,0,0,0-.682.681,4.359,4.359,0,0,1-.421,1.1,4.359,4.359,0,0,1-.421-1.1.948.948,0,0,0-.682-.681.631.631,0,1,1,0-.841.949.949,0,0,0,.682-.7A4.358,4.358,0,0,1,36.458,968.388Zm-8.022,5a.936.936,0,0,0-.508.246,6.709,6.709,0,0,0-1.726,2.943,6.748,6.748,0,0,0-2.959,1.74.961.961,0,0,0,0,1.261,6.754,6.754,0,0,0,2.959,1.74,6.709,6.709,0,0,0,1.726,2.943.963.963,0,0,0,1.276,0,6.709,6.709,0,0,0,1.726-2.943,6.754,6.754,0,0,0,2.959-1.74.961.961,0,0,0,0-1.261,6.748,6.748,0,0,0-2.959-1.74,6.709,6.709,0,0,0-1.726-2.943.944.944,0,0,0-.769-.246Zm-15.086.058A2.456,2.456,0,0,0,11,975.3a8.608,8.608,0,0,0-.162,1.339c-.239,3.094-.626,6.193-.836,9.282a5.1,5.1,0,0,0,1.639,3.407c2,2.043,4.6,3.536,6.208,5.712l-.421,4.233a.933.933,0,0,0,1.857.188l.464-4.639a.938.938,0,0,0-.189-.652c-1.693-2.219-4.227-3.987-6.145-5.722a5.928,5.928,0,0,1-.638-.629,3.084,3.084,0,0,1-.919-1.9s0-.01,0-.014c.32-3.347.585-6.738.928-10.062.242-1.422,1.456-.3,1.393-.232q-.226,4.423-.464,8.858a.942.942,0,0,0,.3.739l3.945,3.625a.929.929,0,1,0,1.247-1.377l-3.264-3a.93.93,0,0,0,.087-.348,1.7,1.7,0,0,1,.653-1.334c.3-.193.571-.247,1.073.145,1.587,1.315,3.265,2.584,4.932,3.755a6.569,6.569,0,0,1,1.871,1.638c.612.833.75,3.137.754,4.1,0,0,0,.011,0,.014v6.944a.928.928,0,1,0,1.857,0v-6.959c0-.92.175-3.449-1.1-5.19a8.541,8.541,0,0,0-2.306-2.073c-1.965-1.425-3.416-2.514-4.83-3.682a2.814,2.814,0,0,0-3.191-.275l.29-5.437H16.02a2.179,2.179,0,0,0-2.19-2.305,3.173,3.173,0,0,0-.479,0Zm29.954,0a2.213,2.213,0,0,0-2.2,2.08c-.006.1,0,.19,0,.225l.29,5.437a2.814,2.814,0,0,0-3.191.275c-1.559,1.294-3.222,2.553-4.83,3.682a8.54,8.54,0,0,0-2.306,2.073c-1.278,1.741-1.1,4.27-1.1,5.19v6.959a.928.928,0,1,0,1.857,0v-6.959c0-.966.143-3.269.754-4.1a6.569,6.569,0,0,1,1.871-1.638c2-1.447,3.49-2.565,4.932-3.755.5-.392.77-.338,1.073-.145.622.507,1,1.389.74,1.682-1.067,1.006-2.175,2.005-3.264,3a.929.929,0,1,0,1.247,1.377l3.945-3.625a.942.942,0,0,0,.3-.739c-.153-2.952-.316-5.909-.464-8.858-.017-.1,1.15-1.19,1.393.232.329,3.325.624,6.713.928,10.062,0,0,0,.01,0,.014a3.4,3.4,0,0,1-1.1,2.1c-2.207,2.29-4.919,4-6.6,6.147a.938.938,0,0,0-.189.652l.464,4.639a.933.933,0,0,0,1.857-.188l-.421-4.233c1.92-2.246,4.354-3.954,6.208-5.712a5.1,5.1,0,0,0,1.639-3.407c0-.029,0-.058,0-.087-.366-3.414-.542-6.86-.943-10.265a2.529,2.529,0,0,0-2.887-2.117Zm-14.738,2.378a5.3,5.3,0,0,1,.754,1.682.949.949,0,0,0,.682.7,1.013,1.013,0,1,1,0,1.493.949.949,0,0,0-.682.7,5.364,5.364,0,0,1-.754,1.7,5.364,5.364,0,0,1-.754-1.7.949.949,0,0,0-.682-.7,1.013,1.013,0,1,1,0-1.493.949.949,0,0,0,.682-.7A5.3,5.3,0,0,1,28.567,975.825Z" transform="translate(-10 -960.391)" fill="#fff"/>
  </g>
</svg>
