<svg id="service-2" xmlns="http://www.w3.org/2000/svg" width="37.032" height="34.508" viewBox="0 0 37.032 34.508">
  <g id="Group_4" data-name="Group 4" transform="translate(0)">
    <path id="Path_19" data-name="Path 19" d="M22.347,958.362a.872.872,0,0,0-.763.842v1.775c-.068.014-.129.023-.2.039-.147.036-.292.085-.434.131l-1.71-1.71a.875.875,0,0,0-1.2,0l-2.525,2.525a.875.875,0,0,0,0,1.2l1.644,1.644c-.044.084-.112.145-.158.237-.079.156-.13.315-.2.473h-1.96a.875.875,0,0,0-.842.842v3.367a.875.875,0,0,0,.842.842h1.973c.066.153.108.309.184.46.046.091.114.153.158.237l-1.644,1.644a.875.875,0,0,0,0,1.2l2.525,2.525a.875.875,0,0,0,1.2,0l1.7-1.7c.145.047.3.1.447.132.068.017.129.025.2.039v1.775a.875.875,0,0,0,.842.842h3.367a.875.875,0,0,0,.842-.842V975.1c.071-.015.139-.022.21-.039.151-.037.289-.1.434-.145l1.71,1.71a.875.875,0,0,0,1.184,0L32.7,974.1a.875.875,0,0,0,0-1.2l-1.631-1.631c.045-.086.11-.155.158-.25.076-.152.118-.307.184-.46h1.96a.875.875,0,0,0,.842-.842c0-1.011,0-2.221,0-3.367a.875.875,0,0,0-.842-.842h-1.96c-.067-.157-.106-.318-.184-.473-.048-.1-.112-.163-.158-.25l1.631-1.631a.875.875,0,0,0,0-1.2l-2.525-2.525a.874.874,0,0,0-1.184,0l-1.71,1.71c-.145-.047-.284-.095-.434-.131-.071-.017-.14-.025-.21-.039V959.2a.875.875,0,0,0-.842-.842H22.347Zm.921,1.683h1.684v1.683a.878.878,0,0,0,.947.842,2.2,2.2,0,0,1,.552.079,4.08,4.08,0,0,1,.408.118,1.589,1.589,0,0,1,.2.1.876.876,0,0,0,1.01-.128l1.513-1.512,1.342,1.341-1.513,1.5a.874.874,0,0,0-.013,1.184c-.037-.039.17.263.316.552a5.181,5.181,0,0,1,.316.75.868.868,0,0,0,.816.644h1.684v1.683H30.844a.867.867,0,0,0-.816.631,5.19,5.19,0,0,1-.316.763c-.146.29-.352.591-.316.552A.873.873,0,0,0,29.41,972l1.513,1.512-1.342,1.328-1.513-1.512a.87.87,0,0,0-1.092-.079.811.811,0,0,1-.118.053,4.078,4.078,0,0,1-.408.118c-.15.036-.309.064-.421.079a1.1,1.1,0,0,1-.233.014.889.889,0,0,0-.845.841v1.683H23.267v-1.683a.887.887,0,0,0-.85-.839c-.038,0-.042,0-.229-.016a4.608,4.608,0,0,1-.816-.2.713.713,0,0,1-.21-.112.876.876,0,0,0-1.013.138l-1.513,1.5-1.315-1.315,1.5-1.512a.874.874,0,0,0,.013-1.17c.037.039-.183-.263-.329-.552a5.2,5.2,0,0,1-.316-.763.867.867,0,0,0-.816-.631H15.691c0-.54,0-1.091,0-1.683h1.684a.868.868,0,0,0,.816-.644,5.172,5.172,0,0,1,.316-.75c.146-.29.365-.591.329-.552a.874.874,0,0,0-.013-1.184l-1.5-1.5,1.315-1.341,1.513,1.512a.871.871,0,0,0,1.1.092.639.639,0,0,1,.118-.066,4.608,4.608,0,0,1,.816-.2.736.736,0,0,1,.145,0,.878.878,0,0,0,.934-.842Zm.842,4.208a3.787,3.787,0,1,0,3.788,3.787,3.8,3.8,0,0,0-3.788-3.787Zm0,1.683a2.1,2.1,0,1,1-2.1,2.1,2.092,2.092,0,0,1,2.1-2.1Zm-9.76,11.349a.842.842,0,0,0-.329,1.591l3.788,2.1a.842.842,0,1,0,.816-1.473l-3.788-2.1A.848.848,0,0,0,14.349,977.286Zm-3.38,1.683a.842.842,0,0,0-.3,1.591l5.472,2.946a.842.842,0,1,0,.789-1.486l-5.472-2.946a.849.849,0,0,0-.487-.105Zm24.084,1.7c-3.29,0-6.3,1.2-8.116,1.683H21.163a3.646,3.646,0,0,0-1.828.5,1.857,1.857,0,0,0-1.118,1.6v1.262a1.841,1.841,0,0,0,1.118,1.591,3.65,3.65,0,0,0,1.828.513h5.893a.842.842,0,1,0,0-1.683H21.163a2.238,2.238,0,0,1-.973-.289c-.208-.121-.273-.241-.289-.21v-1.092c.016.027.08-.115.289-.237a2.214,2.214,0,0,1,.973-.276h5.893a.858.858,0,0,0,.21-.026c2.025-.525,4.88-1.657,7.787-1.657,2.459,0,4.4.946,6.813,2.025a.842.842,0,0,0,.684-1.539c-2.38-1.063-4.605-2.17-7.5-2.17Zm-26.846.815a1.577,1.577,0,0,0-.5.092,1.65,1.65,0,0,0-.737.566,7.094,7.094,0,0,0-.395.592c-.014.017-.027.035-.039.053-.153.281-.272.493-.381.75a1.459,1.459,0,0,0-.066,1.052,1.68,1.68,0,0,0,.631.776c.246.189.547.373.934.631,2.2,1.374,4.23,2.851,6.09,4.024a33.614,33.614,0,0,0,3.486,1.96,7.569,7.569,0,0,0,3.091.894c5.985,0,8.813-.421,15.574-.421,3.29,0,4.3.408,5.472.408a1.585,1.585,0,0,0,1.184-.539,1.546,1.546,0,0,0,.5-1.131v-4.208a.842.842,0,1,0-1.684,0v4.2h-.013a41.341,41.341,0,0,0-5.459-.408c-6.829,0-9.666.421-15.574.421a6.768,6.768,0,0,1-2.368-.736,32.277,32.277,0,0,1-3.315-1.854c-2.093-1.255-4.059-2.77-6.09-4.024-.36-.24-.621-.409-.776-.526.057-.111.124-.228.25-.46.108-.169.194-.307.25-.381h.013a3.229,3.229,0,0,1,.7.3c2.4,1.208,4.733,2.475,6.787,3.393a.842.842,0,0,0,.684-1.539c-2.326-1.033-4.637-2.3-6.682-3.34a5.127,5.127,0,0,0-1.065-.473,1.824,1.824,0,0,0-.5-.066Z" transform="translate(-6.018 -958.362)" fill="#fff"/>
  </g>
</svg>
