<svg xmlns="http://www.w3.org/2000/svg" width="22" height="22" viewBox="0 0 22 22">
  <g id="Group_3234" data-name="Group 3234" transform="translate(-213.225 -138.718)">
    <g id="Group_3231" data-name="Group 3231" transform="translate(213.225 138.718)">
      <path id="Path_10022" data-name="Path 10022" d="M224.225,160.718a11,11,0,1,1,11-11A11.012,11.012,0,0,1,224.225,160.718Zm0-20.818a9.818,9.818,0,1,0,9.818,9.818A9.829,9.829,0,0,0,224.225,139.9Z" transform="translate(-213.225 -138.718)" fill="#fff"/>
    </g>
    <g id="Group_3233" data-name="Group 3233" transform="translate(217.571 145.043)">
      <g id="Group_3232" data-name="Group 3232" transform="translate(0)">
        <path id="Path_10023" data-name="Path 10023" d="M238.154,157.8a2.937,2.937,0,0,0-2.937-2.937H227.6a2.937,2.937,0,0,0-2.937,2.937v3.57a2.937,2.937,0,0,0,2.937,2.937h7.618a2.937,2.937,0,0,0,2.937-2.937Zm-4.806,1.965-3.038,1.666c-.132.072-.251-.024-.251-.174v-3.42c0-.152.122-.247.255-.172l3.059,1.754A.2.2,0,0,1,233.348,159.765Z" transform="translate(-224.662 -154.863)" fill="#fff"/>
      </g>
    </g>
  </g>
</svg>
